<svg aria-hidden="true" style="position:absolute;width:0;height:0;overflow:hidden" xmlns="http://www.w3.org/2000/svg">
    <defs>
        <symbol id="icon-github" viewBox="0 0 32 32">
            <path
                d="M16 0C7.212 0 0 7.212 0 16c0 7.499 5.262 14.312 12.25 16v-5.293c-.692.152-1.33.156-2.034-.052-.946-.279-1.714-.909-2.284-1.869-.364-.613-1.008-1.278-1.68-1.23l-.165-1.868c1.453-.124 2.711.886 3.457 2.14.332.558.713.884 1.203 1.029.473.14.982.072 1.574-.137.149-1.186.692-1.63 1.102-2.255v-.001c-4.167-.622-5.828-2.832-6.488-4.578-.874-2.317-.405-5.212 1.14-7.041.03-.036.084-.129.063-.194-.708-2.139.155-3.909.187-4.097.817.242.95-.243 3.551 1.337l.449.27c.188.112.129.048.317.034A13.544 13.544 0 0 1 16 7.723c1.136.015 2.273.178 3.404.484l.145.015c-.013-.002.04-.009.127-.062 3.248-1.968 3.132-1.324 4.003-1.608.032.188.883 1.987.182 4.099-.095.291 2.816 2.956 1.203 7.235-.659 1.746-2.32 3.957-6.487 4.578v.001c.534.814 1.176 1.247 1.173 2.927V32C26.738 30.312 32 23.499 32 16c0-8.788-7.212-16-16-16z" />
        </symbol>
        <symbol id="icon-telegram" viewBox="0 0 44 32">
            <path
                d="m17.343 21.048-.675 8.86c.966 0 1.384-.387 1.885-.852l4.527-4.038 9.381 6.412c1.72.895 2.933.424 3.397-1.477l6.157-26.929.002-.002c.546-2.374-.92-3.302-2.596-2.72L3.227 13.235c-2.47.895-2.433 2.18-.42 2.762l9.253 2.686L33.554 6.131c1.012-.625 1.931-.279 1.175.346l-17.386 14.57z" />
        </symbol>
        <symbol id="icon-facebook" viewBox="0 0 16 32">
            <path
                d="M14.143 15.972h-4.034v14.865H3.997V15.972H1.09v-5.224h2.907V7.367c0-2.418 1.142-6.203 6.166-6.203l4.527.019v5.071h-3.285c-.539 0-1.296.271-1.296 1.424v3.075h4.567l-.534 5.219z" />
        </symbol>
        <symbol id="icon-Burger" viewBox="0 0 50 32">
            <path fill="none" stroke-linecap="round"
                stroke-width="4.571" d="M2.286 2.286H48M2.286 16H48M2.286 29.714H48" />
        </symbol>
        <symbol id="icon-close" viewBox="0 0 32 32">
            <path
                d="M23.884 6.706 16 14.59 8.116 6.706a.995.995 0 0 0-1.38.031 1 1 0 0 0-.031 1.38l7.88 7.884-7.882 7.882a1.002 1.002 0 0 0-.018 1.427.998.998 0 0 0 1.427-.015l7.886-7.882 7.884 7.884a1 1 0 0 0 1.38-.03 1 1 0 0 0 .03-1.38l-7.884-7.884 7.884-7.886a1.002 1.002 0 0 0 .018-1.427.998.998 0 0 0-1.427.015v.002z" />
        </symbol>
        <symbol id="icon-more" viewBox="0 0 32 32">
            <path stroke-linejoin="round" stroke-linecap="round" stroke-width="5.333"
                d="M10.667 5.333 23.863 16 10.667 26.667" />
        </symbol>
        <symbol id="icon-arrow" viewBox="0 0 82 32">
            <path
                d="M81.414 17.414a2 2 0 0 0 0-2.828L68.686 1.858a2 2 0 1 0-2.828 2.828L77.172 16 65.858 27.314a2 2 0 1 0 2.828 2.828l12.728-12.728zM0 18h80v-4H0v4z" />
        </symbol>
        <symbol id="icon-ice-cream" viewBox="0 0 17 32">
            <path fill="#f8d24e" style="fill:var(--color4, #f8d24e)"
                d="M15.7 14.109c1.632-4.366-1.748-6.756-3.988-8.327-.428-.321-.857-.621-1.204-.895-.62-.516-1.077-1.196-1.316-1.96s-.251-1.58-.033-2.351a.447.447 0 0 0-.133-.455.474.474 0 0 0-.471-.094 7.592 7.592 0 0 0-2.078 1.22c-.597.454-1.081 1.037-1.415 1.703s-.507 1.4-.509 2.143a5.671 5.671 0 0 0-1.109 1.144 4.154 4.154 0 0 0-.818 2.681c-.686.621-1.197 1.407-1.483 2.281s-.337 1.806-.149 2.706c-.273.163-.484.409-.601.701s-.134.615-.047.917.272.569.526.758c.255.189.566.29.885.288h.03v2.483c0 .252.102.494.282.672s.426.278.682.278h.75l1.221 10.43c.025.232.137.447.313.603s.405.242.642.242h5.081c.237 0 .466-.087.643-.242s.29-.37.317-.602l1.221-10.43h.75c.256 0 .501-.1.682-.278s.282-.42.282-.672V16.57h.03c.387 0 .759-.152 1.033-.422s.428-.636.428-1.018a1.422 1.422 0 0 0-.429-1.026l-.013.004zM4.704 6.188c.617 2.284 2.999 3.184 5.17 3.986a.466.466 0 0 0 .394.044.475.475 0 0 0 .287-.271.447.447 0 0 0-.028-.39.459.459 0 0 0-.322-.227C7.866 8.456 5.66 7.641 5.493 5.306c-.039-.642.083-1.283.356-1.867s.688-1.093 1.208-1.481a6.983 6.983 0 0 1 1.045-.709 5.362 5.362 0 0 0 0 .878c.05.669.235 1.322.546 1.919s.74 1.126 1.262 1.557c.356.3.797.608 1.285.937 1.127.798 2.407 1.689 3.221 2.897a4.449 4.449 0 0 1 .467 4.285H12.99c-3.902 0-8.387-1.064-9.274-4.045-.176-.613-.174-1.263.004-1.875s.527-1.164 1.007-1.591l-.021-.021zm3.513 14.394 1.431 1.41-1.431 1.41-1.431-1.419 1.431-1.402zm3.281 3.704-1.182 1.165-1.431-1.41 1.431-1.406 1.242 1.22-.06.431zM8.217 27.52l-1.431-1.41 1.431-1.41 1.431 1.41-1.431 1.41zm-.656-3.471-1.431 1.41-1.191-1.174-.051-.422 1.242-1.22 1.431 1.406zm-2.09 2.061-.287.283-.073-.642.36.359zm-.15 1.444.81-.798 1.572 1.562a.72.72 0 0 0 .03.093H5.42l-.099-.857zm4.986-.798.81.798-.099.845H8.64l1.666-1.643zm.943-.363-.287-.283.364-.359-.077.642zm.428-3.691-.715-.718.908-.895-.193 1.613zm-1.375-1.36-1.358-1.334h2.716l-1.358 1.334zm-4.177 0-1.358-1.334h2.716l-1.358 1.334zm4.627 9.02H5.677c-.008-.001-.015-.004-.02-.01s-.009-.012-.01-.02l-.12-1.013h5.38l-.116 1.013c-.001.008-.005.016-.011.021s-.014.008-.023.008h-.004zm3.928-14.711H13.19a.48.48 0 0 0-.359.117.462.462 0 0 0-.153.34.457.457 0 0 0 .32.436.48.48 0 0 0 .192.021h.531v2.483c-.001.008-.005.016-.011.021s-.014.008-.023.008H2.734c-.008 0-.017-.003-.023-.008s-.01-.013-.011-.021v-2.483h8.486c.116-.011.223-.064.301-.149a.457.457 0 0 0-.301-.767H1.762a.549.549 0 0 1-.406-.135.513.513 0 0 1 0-.772.543.543 0 0 1 .406-.135h.972c.116-.011.223-.064.301-.149a.457.457 0 0 0-.301-.767h-.857c-.123-.643-.103-1.304.058-1.938s.46-1.226.875-1.736c.3.921 1.071 2.179 2.999 3.18 1.812.933 4.211 1.41 7.128 1.41h1.713a.547.547 0 0 1 .406.135.51.51 0 0 1 .128.597.524.524 0 0 1-.317.285.517.517 0 0 1-.217.025h.03z" />
        </symbol>
        <symbol id="icon-coursor" viewBox="0 0 25 32">
           <path stroke-linejoin="miter" stroke-linecap="butt" stroke-miterlimit="4" stroke-width="2.6667" d="M8.063 2.682l14.579 13.607c2.495 2.329 1.115 6.511-2.275 6.898l-5.49 0.627c-1.378 0.157-2.672 0.741-3.703 1.668l-3.164 2.848c-2.574 2.317-6.676 0.49-6.676-2.973v-19.752c0-3.498 4.172-5.311 6.729-2.924z"></path>
        </symbol>
        <symbol id="icon-go-top" viewBox="0 0 40 40">
           <path d="M0 20c0-11.046 8.954-20 20-20s20 8.954 20 20v0c0 11.046-8.954 20-20 20s-20-8.954-20-20v0zM20 36c8.837 0 16-7.163 16-16s-7.163-16-16-16v0c-8.837 0-16 7.163-16 16s7.163 16 16 16v0zM21.4 14.92l7.1 7.080-2.82 2.82-5.68-5.62-5.66 5.6-2.82-2.8 8.48-8.48 1.4 1.4z"></path>
        </symbol>
        <symbol id="icon-logo" viewBox="0 0 35 32">
<path fill="#f8d24e" style="fill: var(--color1, #f8d24e)" d="M17.384 14.109c1.632-4.366-1.748-6.756-3.988-8.327-0.428-0.321-0.857-0.621-1.204-0.895-0.62-0.516-1.077-1.196-1.316-1.96s-0.251-1.58-0.033-2.351c0.022-0.081 0.022-0.166-0.002-0.246s-0.069-0.153-0.131-0.209-0.139-0.095-0.222-0.112c-0.083-0.016-0.169-0.010-0.249 0.018-0.754 0.294-1.456 0.706-2.078 1.22-0.597 0.454-1.081 1.037-1.415 1.703s-0.507 1.4-0.509 2.143c-0.422 0.328-0.796 0.713-1.109 1.144-0.576 0.775-0.865 1.722-0.818 2.681-0.686 0.621-1.197 1.407-1.483 2.281s-0.337 1.806-0.149 2.706c-0.273 0.163-0.484 0.409-0.601 0.701s-0.134 0.615-0.047 0.917 0.272 0.569 0.526 0.758c0.255 0.189 0.566 0.29 0.885 0.288h0.030v2.483c0 0.252 0.102 0.494 0.282 0.672s0.426 0.278 0.682 0.278h0.75l1.221 10.43c0.025 0.232 0.137 0.447 0.313 0.603s0.405 0.242 0.642 0.242h5.080c0.237-0 0.466-0.087 0.643-0.242s0.29-0.37 0.317-0.602l1.221-10.43h0.75c0.256 0 0.501-0.1 0.682-0.278s0.282-0.42 0.282-0.672v-2.483h0.030c0.387 0 0.759-0.152 1.033-0.422s0.428-0.636 0.428-1.018c0.002-0.191-0.035-0.38-0.109-0.556s-0.182-0.336-0.32-0.47l-0.013 0.004zM6.388 6.188c0.617 2.284 2.999 3.184 5.17 3.986 0.058 0.035 0.124 0.058 0.192 0.065s0.137 0 0.202-0.021c0.065-0.022 0.124-0.057 0.174-0.104s0.088-0.104 0.113-0.167c0.025-0.063 0.035-0.131 0.030-0.198s-0.025-0.133-0.058-0.192c-0.033-0.059-0.080-0.11-0.135-0.149s-0.12-0.066-0.187-0.078c-2.339-0.874-4.545-1.689-4.712-4.024-0.039-0.642 0.083-1.283 0.356-1.867s0.688-1.093 1.208-1.481c0.326-0.267 0.676-0.505 1.045-0.709-0.024 0.292-0.024 0.586 0 0.878 0.050 0.669 0.235 1.322 0.546 1.919s0.74 1.126 1.262 1.557c0.356 0.3 0.797 0.608 1.285 0.937 1.127 0.798 2.407 1.689 3.221 2.897 0.434 0.619 0.704 1.336 0.786 2.084s-0.028 1.505-0.319 2.201h-1.893c-3.902 0-8.387-1.064-9.274-4.045-0.176-0.613-0.174-1.263 0.004-1.875s0.527-1.164 1.007-1.591l-0.021-0.021zM9.901 20.582l1.431 1.41-1.431 1.41-1.431-1.419 1.431-1.402zM13.182 24.286l-1.182 1.165-1.431-1.41 1.431-1.406 1.242 1.22-0.060 0.431zM9.901 27.52l-1.431-1.41 1.431-1.41 1.431 1.41-1.431 1.41zM9.245 24.049l-1.431 1.41-1.191-1.174-0.051-0.422 1.242-1.22 1.431 1.406zM7.155 26.11l-0.287 0.283-0.073-0.642 0.36 0.359zM7.005 27.554l0.81-0.798 1.572 1.562c0.008 0.032 0.018 0.063 0.030 0.093h-2.313l-0.099-0.857zM11.991 26.756l0.81 0.798-0.099 0.845h-2.378l1.666-1.643zM12.934 26.393l-0.287-0.283 0.364-0.359-0.077 0.642zM13.362 22.702l-0.715-0.718 0.908-0.895-0.193 1.613zM11.987 21.342l-1.358-1.334h2.716l-1.358 1.334zM7.81 21.342l-1.358-1.334h2.716l-1.358 1.334zM12.437 30.362h-5.076c-0.008-0.001-0.015-0.004-0.020-0.010s-0.009-0.012-0.010-0.020l-0.12-1.013h5.38l-0.116 1.013c-0.001 0.008-0.005 0.016-0.011 0.021s-0.014 0.008-0.023 0.008h-0.004zM16.365 15.651h-1.491c-0.065-0.006-0.13 0.001-0.192 0.021s-0.119 0.053-0.167 0.096c-0.048 0.043-0.087 0.096-0.113 0.154s-0.040 0.122-0.040 0.186c0 0.064 0.014 0.128 0.040 0.186s0.065 0.111 0.113 0.154c0.048 0.043 0.105 0.076 0.167 0.096s0.127 0.027 0.192 0.021h0.531v2.483c-0.001 0.008-0.005 0.016-0.011 0.021s-0.014 0.008-0.023 0.008h-10.953c-0.008 0-0.017-0.003-0.023-0.008s-0.010-0.013-0.011-0.021v-2.483h8.486c0.116-0.011 0.223-0.064 0.301-0.149s0.121-0.195 0.121-0.309c0-0.114-0.043-0.225-0.121-0.309s-0.185-0.138-0.301-0.149h-9.424c-0.073 0.006-0.148-0.002-0.217-0.025s-0.134-0.061-0.189-0.11c-0.054-0.049-0.098-0.109-0.128-0.175s-0.045-0.139-0.045-0.211c0-0.073 0.015-0.145 0.045-0.211s0.073-0.126 0.128-0.175c0.054-0.049 0.119-0.086 0.189-0.11s0.144-0.032 0.217-0.025h0.972c0.116-0.011 0.223-0.064 0.301-0.149s0.121-0.195 0.121-0.309c0-0.114-0.043-0.225-0.121-0.309s-0.185-0.138-0.301-0.149h-0.857c-0.123-0.643-0.103-1.304 0.058-1.938s0.46-1.226 0.875-1.736c0.3 0.921 1.071 2.179 2.999 3.18 1.812 0.933 4.211 1.41 7.128 1.41h1.713c0.074-0.006 0.148 0.002 0.217 0.025s0.134 0.061 0.189 0.11c0.054 0.049 0.098 0.109 0.128 0.175s0.045 0.138 0.045 0.211c0 0.073-0.015 0.145-0.045 0.211s-0.073 0.126-0.128 0.175c-0.054 0.049-0.119 0.086-0.189 0.11s-0.144 0.032-0.217 0.025h0.030z"></path>
<path fill="#f8d24e" style="fill: var(--color1, #f8d24e)" d="M19.859 28.392l-0.342 0.525 0.007 0.004 0.335-0.529zM23.541 28.569l0.626-0.014-0.016-0.725-0.715 0.121 0.105 0.617zM23.584 30.495l0.159 0.606 0.478-0.126-0.011-0.494-0.626 0.014zM18.752 30.587l0.141-0.61-0.004-0.001-0.137 0.611zM16.367 29.523l0.405-0.478-0.001-0.001-0.404 0.478zM15.505 27.566l0.626 0.003v-0.003h-0.626zM15.804 26.196l-0.562-0.276-0 0.001 0.562 0.276zM17.725 24.557l0.222 0.586 0.002-0.001-0.224-0.585zM23.877 24.398l0.624 0.049 0.041-0.529-0.515-0.128-0.151 0.608zM23.724 26.361l-0.117 0.615 0.687 0.13 0.054-0.697-0.624-0.049zM22.054 25.557c-0.94 0-1.73 0.1-2.307 0.354-0.296 0.13-0.565 0.313-0.761 0.571-0.202 0.267-0.298 0.577-0.298 0.905h1.252c0-0.073 0.018-0.114 0.044-0.149 0.032-0.043 0.106-0.111 0.267-0.182 0.336-0.148 0.916-0.248 1.803-0.248v-1.252zM18.688 27.389c0 0.644 0.289 1.176 0.829 1.528l0.684-1.049c-0.186-0.121-0.26-0.258-0.26-0.478h-1.252zM19.524 28.921c0.512 0.324 1.186 0.446 1.944 0.446v-1.253c-0.654 0-1.051-0.111-1.273-0.251l-0.67 1.058zM21.467 29.366c0.743 0 1.469-0.060 2.178-0.18l-0.21-1.235c-0.637 0.108-1.293 0.162-1.968 0.162v1.253zM22.915 28.583l0.043 1.926 1.252-0.028-0.043-1.926-1.252 0.028zM23.424 29.89c-0.716 0.188-1.506 0.285-2.373 0.285v1.252c0.96 0 1.858-0.107 2.691-0.326l-0.319-1.211zM21.052 30.175c-0.885 0-1.601-0.070-2.159-0.198l-0.281 1.221c0.681 0.157 1.498 0.23 2.44 0.23v-1.252zM18.889 29.976c-0.598-0.134-1.029-0.276-1.317-0.416l-0.55 1.125c0.413 0.202 0.952 0.37 1.594 0.513l0.273-1.222zM17.571 29.56c-0.309-0.151-0.574-0.323-0.799-0.514l-0.81 0.955c0.313 0.265 0.667 0.493 1.060 0.685l0.55-1.125zM16.771 29.045c-0.426-0.36-0.644-0.83-0.64-1.476l-1.252-0.006c-0.005 0.985 0.352 1.82 1.084 2.438l0.809-0.957zM16.131 27.566c0-0.421 0.083-0.782 0.236-1.094l-1.125-0.551c-0.246 0.503-0.364 1.055-0.364 1.645h1.252zM16.366 26.472c0.285-0.579 0.788-1.029 1.581-1.33l-0.444-1.171c-1.034 0.392-1.811 1.035-2.26 1.948l1.124 0.553zM17.949 25.142c0.833-0.32 1.763-0.484 2.797-0.484v-1.253c-1.168 0-2.252 0.186-3.246 0.568l0.449 1.169zM20.746 24.657c1.054 0 2.047 0.117 2.981 0.348l0.301-1.216c-1.040-0.258-2.134-0.385-3.282-0.385v1.253zM23.253 24.349l-0.153 1.963 1.249 0.097 0.153-1.963-1.249-0.097zM23.841 25.746c-0.652-0.124-1.248-0.188-1.786-0.188v1.252c0.441 0 0.957 0.053 1.553 0.166l0.233-1.231zM29.951 26.746l-0.003 0.626 0.636 0.004-0.007-0.636-0.626 0.007zM29.682 25.933l-0.426 0.459 0.005 0.005 0.421-0.464zM28.123 25.994l0.434 0.452 0.005-0.004-0.438-0.447zM27.743 26.734l-0.618-0.102-0.119 0.724 0.733 0.004 0.003-0.626zM32.349 30.073l0.378 0.499 0.225-0.171 0.021-0.282-0.624-0.047zM30.997 30.575l-0.135-0.612-0.004 0.001 0.138 0.611zM26.3 30.404l-0.214 0.589 0.005 0.002 0.208-0.59zM25.23 29.835l-0.389 0.491 0.008 0.006 0.381-0.497zM24.514 28.936l-0.561 0.278 0.001 0.003 0.56-0.28zM25.248 25.138l0.416 0.468 0-0-0.417-0.467zM30.973 24.459l0.25-0.574-0.006-0.003-0.245 0.576zM32.41 25.78l-0.563 0.274 0.002 0.003 0.562-0.277zM32.654 26.875l0.625 0.045 0.002-0.023v-0.023h-0.626zM32.581 27.884l-0.003 0.626 0.585 0.003 0.042-0.584-0.625-0.045zM27.621 27.859l0.003-0.626-0.817-0.004 0.208 0.79 0.606-0.16zM28.331 28.734l-0.308 0.545 0.003 0.001 0.306-0.547zM32.134 28.52v-0.626h-0.125l-0.116 0.048 0.241 0.578zM32.465 28.52l0.624 0.047 0.050-0.673h-0.675v0.626zM30.577 26.74c-0.005-0.453-0.109-0.939-0.475-1.271l-0.841 0.928c-0.007-0.007 0.007 0.001 0.025 0.055 0.019 0.057 0.037 0.153 0.039 0.301l1.252-0.013zM30.108 25.474c-0.329-0.305-0.76-0.406-1.184-0.406v1.252c0.244 0 0.318 0.058 0.332 0.071l0.852-0.918zM28.924 25.068c-0.466 0-0.9 0.146-1.239 0.479l0.877 0.895c0.068-0.067 0.169-0.121 0.363-0.121v-1.252zM27.689 25.542c-0.308 0.296-0.494 0.669-0.563 1.090l1.236 0.203c0.029-0.174 0.096-0.294 0.195-0.39l-0.867-0.904zM27.74 27.36l2.208 0.012 0.007-1.253-2.208-0.012-0.007 1.253zM31.97 29.574c-0.137 0.104-0.472 0.249-1.108 0.389l0.269 1.223c0.661-0.145 1.227-0.335 1.595-0.614l-0.757-0.998zM30.859 29.964c-0.607 0.137-1.19 0.205-1.752 0.205v1.252c0.662 0 1.338-0.079 2.028-0.236l-0.277-1.222zM29.107 30.169c-0.59 0-1.076-0.028-1.464-0.080l-0.167 1.241c0.461 0.062 1.006 0.091 1.631 0.091v-1.252zM27.643 30.089c-0.38-0.051-0.758-0.143-1.135-0.276l-0.417 1.181c0.455 0.161 0.917 0.273 1.385 0.336l0.167-1.241zM26.514 29.815c-0.366-0.133-0.664-0.294-0.903-0.477l-0.762 0.994c0.357 0.274 0.772 0.492 1.238 0.661l0.427-1.177zM25.619 29.344c-0.215-0.17-0.398-0.395-0.544-0.688l-1.12 0.56c0.221 0.441 0.515 0.815 0.887 1.11l0.777-0.982zM25.076 28.658c-0.132-0.266-0.21-0.609-0.21-1.050h-1.253c0 0.587 0.105 1.129 0.34 1.605l1.123-0.555zM24.865 27.609c0-0.441 0.079-0.83 0.23-1.176l-1.149-0.499c-0.225 0.518-0.333 1.079-0.333 1.674h1.253zM25.095 26.433c0.158-0.364 0.351-0.633 0.57-0.827l-0.833-0.935c-0.377 0.335-0.669 0.764-0.886 1.264l1.149 0.499zM25.665 25.605c0.673-0.6 1.7-0.948 3.179-0.948v-1.253c-1.66 0-3.031 0.39-4.013 1.266l0.834 0.935zM28.844 24.657c0.664 0 1.29 0.126 1.884 0.378l0.489-1.153c-0.752-0.319-1.544-0.478-2.373-0.478v1.253zM30.722 25.033c0.554 0.242 0.912 0.585 1.124 1.021l1.126-0.548c-0.359-0.738-0.959-1.276-1.75-1.621l-0.501 1.148zM31.848 26.057c0.117 0.237 0.18 0.506 0.18 0.817h1.252c0-0.487-0.1-0.948-0.309-1.372l-1.123 0.555zM32.030 26.829l-0.073 1.009 1.249 0.091 0.073-1.009-1.249-0.091zM32.584 27.258l-4.96-0.024-0.006 1.252 4.96 0.024 0.006-1.252zM27.015 28.019c0.146 0.555 0.505 0.976 1.007 1.26l0.616-1.090c-0.248-0.14-0.363-0.302-0.412-0.489l-1.211 0.319zM28.025 29.281c0.508 0.284 1.143 0.398 1.853 0.398v-1.252c-0.595 0-0.991-0.098-1.242-0.238l-0.611 1.093zM29.878 29.678c0.762 0 1.598-0.206 2.497-0.58l-0.481-1.156c-0.805 0.335-1.473 0.484-2.016 0.484v1.252zM32.134 29.146h0.33v-1.252h-0.33v1.252zM31.84 28.473l-0.116 1.553 1.249 0.093 0.116-1.553-1.249-0.093z"></path>
</symbol>
    </defs>
</svg>